<?xml version="1.0" encoding="UTF-8"?>
<svg width="200" height="50" viewBox="0 0 200 50" version="1.1" xmlns="http://www.w3.org/2000/svg">
    <g>
        <path d="M25,0 C38.8071187,0 50,11.1928813 50,25 C50,38.8071187 38.8071187,50 25,50 C11.1928813,50 0,38.8071187 0,25 C0,11.1928813 11.1928813,0 25,0 Z" fill="#1a73e8" opacity="0.2"/>
        <path d="M25,5 C36.0456955,5 45,13.9543045 45,25 C45,36.0456955 36.0456955,45 25,45 C13.9543045,45 5,36.0456955 5,25 C5,13.9543045 13.9543045,5 25,5 Z" fill="#1a73e8" opacity="0.4"/>
        <path d="M25,10 C33.2842712,10 40,16.7157288 40,25 C40,33.2842712 33.2842712,40 25,40 C16.7157288,40 10,33.2842712 10,25 C10,16.7157288 16.7157288,10 25,10 Z" fill="#1a73e8"/>
        <path d="M20,20 L30,25 L20,30 L20,20 Z" fill="white"/>
    </g>
    <path d="M70,15 L130,15" stroke="#1a73e8" stroke-width="2"/>
</svg>
